<svg width="453" height="96" viewBox="0 0 453 96" fill="none" xmlns="http://www.w3.org/2000/svg">
<rect width="96" height="96" rx="4" fill="#074F77"/>
<path fill-rule="evenodd" clip-rule="evenodd" d="M16 20.5C16 14.701 20.701 10 26.5 10H37.5C43.299 10 48 14.701 48 20.5V29.3197H54L57.7333 33.1292L63.8667 26.8707C63.2 25.2381 62.8 23.6054 62.8 21.8367C62.8 15.3061 68 10 74.4 10C80.8 10 86 15.3061 86 21.8367C86 28.3673 80.8 33.6735 74.4 33.6735C72.5333 33.6735 70.9333 33.2653 69.4667 32.585L63.3333 38.8435L78.2667 54.0816V67.0068C82.6667 68.7755 85.8667 73.1292 85.8667 78.1633C85.8667 84.6939 80.6667 90 74.2667 90C67.8667 90 62.6667 84.6939 62.6667 78.1633C62.6667 72.9932 65.8667 68.6395 70.2667 67.0068V57.483L50.5333 37.3469H48V54V79.5C48 85.299 43.299 90 37.5 90H26.5C20.701 90 16 85.299 16 79.5V20.5ZM77.8667 21.8367C77.8667 19.7959 76.2667 18.1633 74.2667 18.1633C72.2667 18.1633 70.6667 19.7959 70.6667 21.8367C70.6667 23.8775 72.2667 25.5102 74.2667 25.5102C76.2667 25.5102 77.8667 23.8775 77.8667 21.8367ZM70.6667 78.1633C70.6667 80.2041 72.2667 81.8367 74.2667 81.8367C76.2667 81.8367 77.8667 80.2041 77.8667 78.1633C77.8667 76.1224 76.2667 74.4898 74.2667 74.4898C72.2667 74.4898 70.6667 76.1224 70.6667 78.1633ZM26.5 24C25.1193 24 24 25.1193 24 26.5V73.5C24 74.8807 25.1193 76 26.5 76H31.5C32.8807 76 34 74.8807 34 73.5V26.5C34 25.1193 32.8807 24 31.5 24H26.5Z" fill="black"/>
<path fill-rule="evenodd" clip-rule="evenodd" d="M14 18.5C14 12.701 18.701 8 24.5 8H35.5C41.299 8 46 12.701 46 18.5V27.3197H52L55.7333 31.1292L61.8667 24.8707C61.2 23.2381 60.8 21.6054 60.8 19.8367C60.8 13.3061 66 8 72.4 8C78.8 8 84 13.3061 84 19.8367C84 26.3673 78.8 31.6735 72.4 31.6735C70.5333 31.6735 68.9333 31.2653 67.4667 30.585L61.3333 36.8435L76.2667 52.0816V65.0068C80.6667 66.7755 83.8667 71.1292 83.8667 76.1633C83.8667 82.6939 78.6667 88 72.2667 88C65.8667 88 60.6667 82.6939 60.6667 76.1633C60.6667 70.9932 63.8667 66.6395 68.2667 65.0068V55.483L48.5333 35.3469H46V52V77.5C46 83.299 41.299 88 35.5 88H24.5C18.701 88 14 83.299 14 77.5V18.5ZM75.8667 19.8367C75.8667 17.7959 74.2667 16.1633 72.2667 16.1633C70.2667 16.1633 68.6667 17.7959 68.6667 19.8367C68.6667 21.8775 70.2667 23.5102 72.2667 23.5102C74.2667 23.5102 75.8667 21.8775 75.8667 19.8367ZM68.6667 76.1633C68.6667 78.2041 70.2667 79.8367 72.2667 79.8367C74.2667 79.8367 75.8667 78.2041 75.8667 76.1633C75.8667 74.1224 74.2667 72.4898 72.2667 72.4898C70.2667 72.4898 68.6667 74.1224 68.6667 76.1633ZM24.5 22C23.1193 22 22 23.1193 22 24.5V71.5C22 72.8807 23.1193 74 24.5 74H29.5C30.8807 74 32 72.8807 32 71.5V24.5C32 23.1193 30.8807 22 29.5 22H24.5Z" fill="url(#paint0_linear)"/>
<path d="M154.072 31.752V26.424C154.072 17.64 153.64 12.096 152.776 9.792C151.816 7.152 150.448 5.52 148.672 4.896C147.664 4.512 146.44 4.32 145 4.32C143.56 4.32 142.312 4.512 141.256 4.896C140.248 5.28 139.408 5.952 138.736 6.912C138.064 7.872 137.512 8.88 137.08 9.936C136.696 10.992 136.384 12.48 136.144 14.4C135.856 17.184 135.712 21.288 135.712 26.712V31.896C135.712 37.752 135.928 41.928 136.36 44.424C136.84 46.872 137.416 48.624 138.088 49.68C139.576 52.032 141.88 53.208 145 53.208C148.792 53.208 151.24 51.624 152.344 48.456C153.496 45.24 154.072 39.672 154.072 31.752ZM144.856 54.72C136.84 54.72 130.84 52.56 126.856 48.24C122.92 43.872 120.952 37.584 120.952 29.376C120.952 21.12 123.064 14.64 127.288 9.936C131.56 5.184 137.584 2.808 145.36 2.808C153.136 2.808 158.992 5.064 162.928 9.576C166.912 14.04 168.904 20.4 168.904 28.656C168.904 36.912 166.888 43.32 162.856 47.88C158.872 52.44 152.872 54.72 144.856 54.72Z" fill="#0089D7"/>
<path d="M213.996 54H197.58L196.788 48.744C196.02 50.664 194.868 52.152 193.332 53.208C191.844 54.216 189.612 54.72 186.636 54.72C179.196 54.72 175.476 50.712 175.476 42.696V21.024H171.444V19.728H188.868V44.424C188.868 47.304 189.06 49.2 189.444 50.112C189.876 51.024 190.692 51.48 191.892 51.48C193.14 51.48 194.244 50.736 195.204 49.248C196.164 47.76 196.644 45.696 196.644 43.056V21.024H193.332V19.728H210.036V52.704H213.996V54Z" fill="#0089D7"/>
<path d="M239.518 21.744C237.742 21.744 236.182 22.896 234.838 25.2C233.494 27.504 232.822 30.24 232.822 33.408V52.704H237.934V54H215.47V52.704H219.43V21.024H215.47V19.728H232.822V26.64C233.446 24.192 234.646 22.32 236.422 21.024C238.198 19.68 240.214 19.008 242.47 19.008C244.726 19.008 246.55 19.656 247.942 20.952C249.382 22.2 250.102 24 250.102 26.352C250.102 28.656 249.574 30.432 248.518 31.68C247.462 32.928 245.83 33.552 243.622 33.552C241.462 33.552 239.854 32.832 238.798 31.392C237.79 29.952 237.67 27.96 238.438 25.416H241.03C242.23 22.968 241.726 21.744 239.518 21.744Z" fill="#0089D7"/>
<path d="M252.198 3.6H274.158V4.968H270.198V27.72L270.774 27.576L291.078 4.968H285.39V3.6H297.99V4.968H293.67L281.286 18.792L298.566 52.632H302.454V54H279.342V52.632H282.726L270.846 29.664L270.198 29.808V52.632H274.158V54H252.198V52.632H256.158V4.968H252.198V3.6Z" fill="#0089D7"/>
<path d="M320.148 37.08H322.236V31.536C322.236 26.976 321.972 23.928 321.444 22.392C320.964 20.808 320.004 20.016 318.564 20.016C317.7 20.016 316.908 20.256 316.188 20.736C315.516 21.168 315.18 21.792 315.18 22.608C315.18 23.376 315.324 24.168 315.612 24.984H317.412C317.796 25.992 317.988 27.216 317.988 28.656C317.988 30.048 317.388 31.272 316.188 32.328C314.988 33.336 313.476 33.84 311.652 33.84C307.524 33.84 305.46 31.848 305.46 27.864C305.46 21.96 310.476 19.008 320.508 19.008C326.22 19.008 330.156 19.992 332.316 21.96C334.524 23.88 335.628 27.432 335.628 32.616V47.232C335.628 49.728 336.324 50.976 337.716 50.976C339.348 50.976 340.308 48.504 340.596 43.56L341.676 43.632C341.484 47.856 340.692 50.76 339.3 52.344C337.908 53.928 335.628 54.72 332.46 54.72C326.7 54.72 323.388 52.944 322.524 49.392C321.9 51.216 320.964 52.56 319.716 53.424C318.468 54.288 316.644 54.72 314.244 54.72C307.14 54.72 303.588 51.816 303.588 46.008C303.588 42.6 304.932 40.272 307.62 39.024C310.356 37.728 314.532 37.08 320.148 37.08ZM317.268 45.936C317.268 48.432 317.388 50.04 317.628 50.76C317.916 51.48 318.42 51.84 319.14 51.84C319.908 51.84 320.604 51.24 321.228 50.04C321.9 48.792 322.236 47.088 322.236 44.928V38.232H321.732C318.756 38.232 317.268 40.416 317.268 44.784V45.936Z" fill="#0089D7"/>
<path d="M357 39.096C357 44.136 357.264 47.496 357.792 49.176C358.32 50.808 359.28 51.624 360.672 51.624C362.112 51.624 363.336 51 364.344 49.752C365.4 48.504 365.928 46.656 365.928 44.208V28.512C365.928 26.448 365.52 24.696 364.704 23.256C363.888 21.816 362.688 21.096 361.104 21.096C359.52 21.096 358.44 22.152 357.864 24.264C357.288 26.376 357 30.072 357 35.352V39.096ZM366.864 54L366.072 48.96C364.44 52.8 361.128 54.72 356.136 54.72C352.008 54.72 348.792 53.232 346.488 50.256C344.232 47.28 343.104 42.84 343.104 36.936C343.104 24.984 347.856 19.008 357.36 19.008C361.584 19.008 364.368 20.184 365.712 22.536V1.296H361.32V0H379.32V52.704H382.848V54H366.864Z" fill="#0089D7"/>
<path d="M401.992 37.08H404.08V31.536C404.08 26.976 403.816 23.928 403.288 22.392C402.808 20.808 401.848 20.016 400.408 20.016C399.544 20.016 398.752 20.256 398.032 20.736C397.36 21.168 397.024 21.792 397.024 22.608C397.024 23.376 397.168 24.168 397.456 24.984H399.256C399.64 25.992 399.832 27.216 399.832 28.656C399.832 30.048 399.232 31.272 398.032 32.328C396.832 33.336 395.32 33.84 393.496 33.84C389.368 33.84 387.304 31.848 387.304 27.864C387.304 21.96 392.32 19.008 402.352 19.008C408.064 19.008 412 19.992 414.16 21.96C416.368 23.88 417.472 27.432 417.472 32.616V47.232C417.472 49.728 418.168 50.976 419.56 50.976C421.192 50.976 422.152 48.504 422.44 43.56L423.52 43.632C423.328 47.856 422.536 50.76 421.144 52.344C419.752 53.928 417.472 54.72 414.304 54.72C408.544 54.72 405.232 52.944 404.368 49.392C403.744 51.216 402.808 52.56 401.56 53.424C400.312 54.288 398.488 54.72 396.088 54.72C388.984 54.72 385.432 51.816 385.432 46.008C385.432 42.6 386.776 40.272 389.464 39.024C392.2 37.728 396.376 37.08 401.992 37.08ZM399.112 45.936C399.112 48.432 399.232 50.04 399.472 50.76C399.76 51.48 400.264 51.84 400.984 51.84C401.752 51.84 402.448 51.24 403.072 50.04C403.744 48.792 404.08 47.088 404.08 44.928V38.232H403.576C400.6 38.232 399.112 40.416 399.112 44.784V45.936Z" fill="#0089D7"/>
<path d="M434.812 14.76C432.268 14.76 430.444 14.112 429.34 12.816C428.284 11.52 427.756 9.912 427.756 7.992C427.756 6.072 428.332 4.488 429.484 3.24C430.684 1.992 432.484 1.368 434.884 1.368C437.284 1.368 439.108 1.944 440.356 3.096C441.604 4.2 442.228 5.808 442.228 7.92C442.228 9.984 441.628 11.64 440.428 12.888C439.228 14.136 437.356 14.76 434.812 14.76ZM423.94 19.728H441.58V52.704H445.612V54H424.228V52.704H428.188V21.024H423.94V19.728Z" fill="#0089D7"/>
<rect x="120" y="64" width="332" height="2" fill="#0089D7"/>
<path d="M125.762 90H122.809V72.9375H125.762V90Z" fill="#0089D7"/>
<path d="M132.699 74.2383V77.3203H134.938V79.4297H132.699V86.5078C132.699 86.9922 132.793 87.3438 132.98 87.5625C133.176 87.7734 133.52 87.8789 134.012 87.8789C134.34 87.8789 134.672 87.8398 135.008 87.7617V89.9648C134.359 90.1445 133.734 90.2344 133.133 90.2344C130.945 90.2344 129.852 89.0273 129.852 86.6133V79.4297H127.766V77.3203H129.852V74.2383H132.699Z" fill="#0089D7"/>
<path d="M144.23 86.5547C144.23 86.0469 144.02 85.6602 143.598 85.3945C143.184 85.1289 142.492 84.8945 141.523 84.6914C140.555 84.4883 139.746 84.2305 139.098 83.918C137.676 83.2305 136.965 82.2344 136.965 80.9297C136.965 79.8359 137.426 78.9219 138.348 78.1875C139.27 77.4531 140.441 77.0859 141.863 77.0859C143.379 77.0859 144.602 77.4609 145.531 78.2109C146.469 78.9609 146.938 79.9336 146.938 81.1289H144.09C144.09 80.582 143.887 80.1289 143.48 79.7695C143.074 79.4023 142.535 79.2188 141.863 79.2188C141.238 79.2188 140.727 79.3633 140.328 79.6523C139.938 79.9414 139.742 80.3281 139.742 80.8125C139.742 81.25 139.926 81.5898 140.293 81.832C140.66 82.0742 141.402 82.3203 142.52 82.5703C143.637 82.8125 144.512 83.1055 145.145 83.4492C145.785 83.7852 146.258 84.1914 146.562 84.668C146.875 85.1445 147.031 85.7227 147.031 86.4023C147.031 87.543 146.559 88.4688 145.613 89.1797C144.668 89.8828 143.43 90.2344 141.898 90.2344C140.859 90.2344 139.934 90.0469 139.121 89.6719C138.309 89.2969 137.676 88.7812 137.223 88.125C136.77 87.4688 136.543 86.7617 136.543 86.0039H139.309C139.348 86.6758 139.602 87.1953 140.07 87.5625C140.539 87.9219 141.16 88.1016 141.934 88.1016C142.684 88.1016 143.254 87.9609 143.645 87.6797C144.035 87.3906 144.23 87.0156 144.23 86.5547Z" fill="#0089D7"/>
<path d="M169.391 81.9141C169.391 83.5859 169.102 85.0547 168.523 86.3203C167.945 87.5781 167.117 88.5469 166.039 89.2266C164.969 89.8984 163.734 90.2344 162.336 90.2344C160.953 90.2344 159.719 89.8984 158.633 89.2266C157.555 88.5469 156.719 87.582 156.125 86.332C155.539 85.082 155.242 83.6406 155.234 82.0078V81.0469C155.234 79.3828 155.527 77.9141 156.113 76.6406C156.707 75.3672 157.539 74.3945 158.609 73.7227C159.688 73.043 160.922 72.7031 162.312 72.7031C163.703 72.7031 164.934 73.0391 166.004 73.7109C167.082 74.375 167.914 75.3359 168.5 76.5938C169.086 77.8438 169.383 79.3008 169.391 80.9648V81.9141ZM166.426 81.0234C166.426 79.1328 166.066 77.6836 165.348 76.6758C164.637 75.668 163.625 75.1641 162.312 75.1641C161.031 75.1641 160.027 75.668 159.301 76.6758C158.582 77.6758 158.215 79.0938 158.199 80.9297V81.9141C158.199 83.7891 158.562 85.2383 159.289 86.2617C160.023 87.2852 161.039 87.7969 162.336 87.7969C163.648 87.7969 164.656 87.2969 165.359 86.2969C166.07 85.2969 166.426 83.8359 166.426 81.9141V81.0234Z" fill="#0089D7"/>
<path d="M177.242 82.6289L175.309 84.6797V90H172.344V72.9375H175.309V80.9414L176.949 78.9141L181.941 72.9375H185.527L179.188 80.4961L185.891 90H182.375L177.242 82.6289Z" fill="#0089D7"/>
<path d="M196.754 74.2383V77.3203H198.992V79.4297H196.754V86.5078C196.754 86.9922 196.848 87.3438 197.035 87.5625C197.23 87.7734 197.574 87.8789 198.066 87.8789C198.395 87.8789 198.727 87.8398 199.062 87.7617V89.9648C198.414 90.1445 197.789 90.2344 197.188 90.2344C195 90.2344 193.906 89.0273 193.906 86.6133V79.4297H191.82V77.3203H193.906V74.2383H196.754Z" fill="#0089D7"/>
<path d="M200.293 83.543C200.293 82.3008 200.539 81.1836 201.031 80.1914C201.523 79.1914 202.215 78.4258 203.105 77.8945C203.996 77.3555 205.02 77.0859 206.176 77.0859C207.887 77.0859 209.273 77.6367 210.336 78.7383C211.406 79.8398 211.984 81.3008 212.07 83.1211L212.082 83.7891C212.082 85.0391 211.84 86.1562 211.355 87.1406C210.879 88.125 210.191 88.8867 209.293 89.4258C208.402 89.9648 207.371 90.2344 206.199 90.2344C204.41 90.2344 202.977 89.6406 201.898 88.4531C200.828 87.2578 200.293 85.668 200.293 83.6836V83.543ZM203.141 83.7891C203.141 85.0938 203.41 86.1172 203.949 86.8594C204.488 87.5938 205.238 87.9609 206.199 87.9609C207.16 87.9609 207.906 87.5859 208.438 86.8359C208.977 86.0859 209.246 84.9883 209.246 83.543C209.246 82.2617 208.969 81.2461 208.414 80.4961C207.867 79.7461 207.121 79.3711 206.176 79.3711C205.246 79.3711 204.508 79.7422 203.961 80.4844C203.414 81.2188 203.141 82.3203 203.141 83.7891Z" fill="#0089D7"/>
<path d="M225.676 87.9609C226.387 87.9609 226.977 87.7539 227.445 87.3398C227.914 86.9258 228.164 86.4141 228.195 85.8047H230.879C230.848 86.5938 230.602 87.332 230.141 88.0195C229.68 88.6992 229.055 89.2383 228.266 89.6367C227.477 90.0352 226.625 90.2344 225.711 90.2344C223.938 90.2344 222.531 89.6602 221.492 88.5117C220.453 87.3633 219.934 85.7773 219.934 83.7539V83.4609C219.934 81.5312 220.449 79.9883 221.48 78.832C222.512 77.668 223.918 77.0859 225.699 77.0859C227.207 77.0859 228.434 77.5273 229.379 78.4102C230.332 79.2852 230.832 80.4375 230.879 81.8672H228.195C228.164 81.1406 227.914 80.543 227.445 80.0742C226.984 79.6055 226.395 79.3711 225.676 79.3711C224.754 79.3711 224.043 79.707 223.543 80.3789C223.043 81.043 222.789 82.0547 222.781 83.4141V83.8711C222.781 85.2461 223.027 86.2734 223.52 86.9531C224.02 87.625 224.738 87.9609 225.676 87.9609Z" fill="#0089D7"/>
<path d="M235.836 78.7031C236.766 77.625 237.941 77.0859 239.363 77.0859C242.066 77.0859 243.438 78.6289 243.477 81.7148V90H240.629V81.8203C240.629 80.9453 240.438 80.3281 240.055 79.9688C239.68 79.6016 239.125 79.418 238.391 79.418C237.25 79.418 236.398 79.9258 235.836 80.9414V90H232.988V72H235.836V78.7031Z" fill="#0089D7"/>
<path d="M253.941 90C253.816 89.7578 253.707 89.3633 253.613 88.8164C252.707 89.7617 251.598 90.2344 250.285 90.2344C249.012 90.2344 247.973 89.8711 247.168 89.1445C246.363 88.418 245.961 87.5195 245.961 86.4492C245.961 85.0977 246.461 84.0625 247.461 83.3438C248.469 82.6172 249.906 82.2539 251.773 82.2539H253.52V81.4219C253.52 80.7656 253.336 80.2422 252.969 79.8516C252.602 79.4531 252.043 79.2539 251.293 79.2539C250.645 79.2539 250.113 79.418 249.699 79.7461C249.285 80.0664 249.078 80.4766 249.078 80.9766H246.23C246.23 80.2812 246.461 79.6328 246.922 79.0312C247.383 78.4219 248.008 77.9453 248.797 77.6016C249.594 77.2578 250.48 77.0859 251.457 77.0859C252.941 77.0859 254.125 77.4609 255.008 78.2109C255.891 78.9531 256.344 80 256.367 81.3516V87.0703C256.367 88.2109 256.527 89.1211 256.848 89.8008V90H253.941ZM250.812 87.9492C251.375 87.9492 251.902 87.8125 252.395 87.5391C252.895 87.2656 253.27 86.8984 253.52 86.4375V84.0469H251.984C250.93 84.0469 250.137 84.2305 249.605 84.5977C249.074 84.9648 248.809 85.4844 248.809 86.1562C248.809 86.7031 248.988 87.1406 249.348 87.4688C249.715 87.7891 250.203 87.9492 250.812 87.9492Z" fill="#0089D7"/>
<path d="M261.992 77.3203L262.074 78.7852C263.012 77.6523 264.242 77.0859 265.766 77.0859C268.406 77.0859 269.75 78.5977 269.797 81.6211V90H266.949V81.7852C266.949 80.9805 266.773 80.3867 266.422 80.0039C266.078 79.6133 265.512 79.418 264.723 79.418C263.574 79.418 262.719 79.9375 262.156 80.9766V90H259.309V77.3203H261.992Z" fill="#0089D7"/>
<path d="M272.211 83.5664C272.211 81.5977 272.672 80.0273 273.594 78.8555C274.523 77.6758 275.754 77.0859 277.285 77.0859C278.73 77.0859 279.867 77.5898 280.695 78.5977L280.824 77.3203H283.391V89.6133C283.391 91.2773 282.871 92.5898 281.832 93.5508C280.801 94.5117 279.406 94.9922 277.648 94.9922C276.719 94.9922 275.809 94.7969 274.918 94.4062C274.035 94.0234 273.363 93.5195 272.902 92.8945L274.25 91.1836C275.125 92.2227 276.203 92.7422 277.484 92.7422C278.43 92.7422 279.176 92.4844 279.723 91.9688C280.27 91.4609 280.543 90.7109 280.543 89.7188V88.8633C279.723 89.7773 278.629 90.2344 277.262 90.2344C275.777 90.2344 274.562 89.6445 273.617 88.4648C272.68 87.2852 272.211 85.6523 272.211 83.5664ZM275.047 83.8125C275.047 85.0859 275.305 86.0898 275.82 86.8242C276.344 87.5508 277.066 87.9141 277.988 87.9141C279.137 87.9141 279.988 87.4219 280.543 86.4375V80.8594C280.004 79.8984 279.16 79.418 278.012 79.418C277.074 79.418 276.344 79.7891 275.82 80.5312C275.305 81.2734 275.047 82.3672 275.047 83.8125Z" fill="#0089D7"/>
<path d="M291.91 90.2344C290.105 90.2344 288.641 89.668 287.516 88.5352C286.398 87.3945 285.84 85.8789 285.84 83.9883V83.6367C285.84 82.3711 286.082 81.2422 286.566 80.25C287.059 79.25 287.746 78.4727 288.629 77.918C289.512 77.3633 290.496 77.0859 291.582 77.0859C293.309 77.0859 294.641 77.6367 295.578 78.7383C296.523 79.8398 296.996 81.3984 296.996 83.4141V84.5625H288.711C288.797 85.6094 289.145 86.4375 289.754 87.0469C290.371 87.6562 291.145 87.9609 292.074 87.9609C293.379 87.9609 294.441 87.4336 295.262 86.3789L296.797 87.8438C296.289 88.6016 295.609 89.1914 294.758 89.6133C293.914 90.0273 292.965 90.2344 291.91 90.2344ZM291.57 79.3711C290.789 79.3711 290.156 79.6445 289.672 80.1914C289.195 80.7383 288.891 81.5 288.758 82.4766H294.184V82.2656C294.121 81.3125 293.867 80.5938 293.422 80.1094C292.977 79.6172 292.359 79.3711 291.57 79.3711Z" fill="#0089D7"/>
<path d="M309.629 85.9219L312.207 77.3203H315.242L310.203 91.9219C309.43 94.0547 308.117 95.1211 306.266 95.1211C305.852 95.1211 305.395 95.0508 304.895 94.9102V92.707L305.434 92.7422C306.152 92.7422 306.691 92.6094 307.051 92.3438C307.418 92.0859 307.707 91.6484 307.918 91.0312L308.328 89.9414L303.875 77.3203H306.945L309.629 85.9219Z" fill="#0089D7"/>
<path d="M316.168 83.543C316.168 82.3008 316.414 81.1836 316.906 80.1914C317.398 79.1914 318.09 78.4258 318.98 77.8945C319.871 77.3555 320.895 77.0859 322.051 77.0859C323.762 77.0859 325.148 77.6367 326.211 78.7383C327.281 79.8398 327.859 81.3008 327.945 83.1211L327.957 83.7891C327.957 85.0391 327.715 86.1562 327.23 87.1406C326.754 88.125 326.066 88.8867 325.168 89.4258C324.277 89.9648 323.246 90.2344 322.074 90.2344C320.285 90.2344 318.852 89.6406 317.773 88.4531C316.703 87.2578 316.168 85.668 316.168 83.6836V83.543ZM319.016 83.7891C319.016 85.0938 319.285 86.1172 319.824 86.8594C320.363 87.5938 321.113 87.9609 322.074 87.9609C323.035 87.9609 323.781 87.5859 324.312 86.8359C324.852 86.0859 325.121 84.9883 325.121 83.543C325.121 82.2617 324.844 81.2461 324.289 80.4961C323.742 79.7461 322.996 79.3711 322.051 79.3711C321.121 79.3711 320.383 79.7422 319.836 80.4844C319.289 81.2188 319.016 82.3203 319.016 83.7891Z" fill="#0089D7"/>
<path d="M338.047 88.7578C337.211 89.7422 336.023 90.2344 334.484 90.2344C333.109 90.2344 332.066 89.832 331.355 89.0273C330.652 88.2227 330.301 87.0586 330.301 85.5352V77.3203H333.148V85.5C333.148 87.1094 333.816 87.9141 335.152 87.9141C336.535 87.9141 337.469 87.418 337.953 86.4258V77.3203H340.801V90H338.117L338.047 88.7578Z" fill="#0089D7"/>
<path d="M350.34 79.9219C349.965 79.8594 349.578 79.8281 349.18 79.8281C347.875 79.8281 346.996 80.3281 346.543 81.3281V90H343.695V77.3203H346.414L346.484 78.7383C347.172 77.6367 348.125 77.0859 349.344 77.0859C349.75 77.0859 350.086 77.1406 350.352 77.25L350.34 79.9219Z" fill="#0089D7"/>
<path d="M369.242 83.7891C369.242 85.7578 368.801 87.3242 367.918 88.4883C367.043 89.6523 365.836 90.2344 364.297 90.2344C362.812 90.2344 361.656 89.6992 360.828 88.6289L360.688 90H358.109V72H360.957V78.5391C361.777 77.5703 362.883 77.0859 364.273 77.0859C365.82 77.0859 367.035 77.6602 367.918 78.8086C368.801 79.957 369.242 81.5625 369.242 83.625V83.7891ZM366.395 83.543C366.395 82.168 366.152 81.1367 365.668 80.4492C365.184 79.7617 364.48 79.418 363.559 79.418C362.324 79.418 361.457 79.957 360.957 81.0352V86.2617C361.465 87.3633 362.34 87.9141 363.582 87.9141C364.473 87.9141 365.16 87.582 365.645 86.918C366.129 86.2539 366.379 85.25 366.395 83.9062V83.543Z" fill="#0089D7"/>
<path d="M379.32 88.7578C378.484 89.7422 377.297 90.2344 375.758 90.2344C374.383 90.2344 373.34 89.832 372.629 89.0273C371.926 88.2227 371.574 87.0586 371.574 85.5352V77.3203H374.422V85.5C374.422 87.1094 375.09 87.9141 376.426 87.9141C377.809 87.9141 378.742 87.418 379.227 86.4258V77.3203H382.074V90H379.391L379.32 88.7578Z" fill="#0089D7"/>
<path d="M392.082 86.5547C392.082 86.0469 391.871 85.6602 391.449 85.3945C391.035 85.1289 390.344 84.8945 389.375 84.6914C388.406 84.4883 387.598 84.2305 386.949 83.918C385.527 83.2305 384.816 82.2344 384.816 80.9297C384.816 79.8359 385.277 78.9219 386.199 78.1875C387.121 77.4531 388.293 77.0859 389.715 77.0859C391.23 77.0859 392.453 77.4609 393.383 78.2109C394.32 78.9609 394.789 79.9336 394.789 81.1289H391.941C391.941 80.582 391.738 80.1289 391.332 79.7695C390.926 79.4023 390.387 79.2188 389.715 79.2188C389.09 79.2188 388.578 79.3633 388.18 79.6523C387.789 79.9414 387.594 80.3281 387.594 80.8125C387.594 81.25 387.777 81.5898 388.145 81.832C388.512 82.0742 389.254 82.3203 390.371 82.5703C391.488 82.8125 392.363 83.1055 392.996 83.4492C393.637 83.7852 394.109 84.1914 394.414 84.668C394.727 85.1445 394.883 85.7227 394.883 86.4023C394.883 87.543 394.41 88.4688 393.465 89.1797C392.52 89.8828 391.281 90.2344 389.75 90.2344C388.711 90.2344 387.785 90.0469 386.973 89.6719C386.16 89.2969 385.527 88.7812 385.074 88.125C384.621 87.4688 384.395 86.7617 384.395 86.0039H387.16C387.199 86.6758 387.453 87.1953 387.922 87.5625C388.391 87.9219 389.012 88.1016 389.785 88.1016C390.535 88.1016 391.105 87.9609 391.496 87.6797C391.887 87.3906 392.082 87.0156 392.082 86.5547Z" fill="#0089D7"/>
<path d="M400.402 90H397.555V77.3203H400.402V90ZM397.379 74.0273C397.379 73.5898 397.516 73.2266 397.789 72.9375C398.07 72.6484 398.469 72.5039 398.984 72.5039C399.5 72.5039 399.898 72.6484 400.18 72.9375C400.461 73.2266 400.602 73.5898 400.602 74.0273C400.602 74.457 400.461 74.8164 400.18 75.1055C399.898 75.3867 399.5 75.5273 398.984 75.5273C398.469 75.5273 398.07 75.3867 397.789 75.1055C397.516 74.8164 397.379 74.457 397.379 74.0273Z" fill="#0089D7"/>
<path d="M406.156 77.3203L406.238 78.7852C407.176 77.6523 408.406 77.0859 409.93 77.0859C412.57 77.0859 413.914 78.5977 413.961 81.6211V90H411.113V81.7852C411.113 80.9805 410.938 80.3867 410.586 80.0039C410.242 79.6133 409.676 79.418 408.887 79.418C407.738 79.418 406.883 79.9375 406.32 80.9766V90H403.473V77.3203H406.156Z" fill="#0089D7"/>
<path d="M422.457 90.2344C420.652 90.2344 419.188 89.668 418.062 88.5352C416.945 87.3945 416.387 85.8789 416.387 83.9883V83.6367C416.387 82.3711 416.629 81.2422 417.113 80.25C417.605 79.25 418.293 78.4727 419.176 77.918C420.059 77.3633 421.043 77.0859 422.129 77.0859C423.855 77.0859 425.188 77.6367 426.125 78.7383C427.07 79.8398 427.543 81.3984 427.543 83.4141V84.5625H419.258C419.344 85.6094 419.691 86.4375 420.301 87.0469C420.918 87.6562 421.691 87.9609 422.621 87.9609C423.926 87.9609 424.988 87.4336 425.809 86.3789L427.344 87.8438C426.836 88.6016 426.156 89.1914 425.305 89.6133C424.461 90.0273 423.512 90.2344 422.457 90.2344ZM422.117 79.3711C421.336 79.3711 420.703 79.6445 420.219 80.1914C419.742 80.7383 419.438 81.5 419.305 82.4766H424.73V82.2656C424.668 81.3125 424.414 80.5938 423.969 80.1094C423.523 79.6172 422.906 79.3711 422.117 79.3711Z" fill="#0089D7"/>
<path d="M436.871 86.5547C436.871 86.0469 436.66 85.6602 436.238 85.3945C435.824 85.1289 435.133 84.8945 434.164 84.6914C433.195 84.4883 432.387 84.2305 431.738 83.918C430.316 83.2305 429.605 82.2344 429.605 80.9297C429.605 79.8359 430.066 78.9219 430.988 78.1875C431.91 77.4531 433.082 77.0859 434.504 77.0859C436.02 77.0859 437.242 77.4609 438.172 78.2109C439.109 78.9609 439.578 79.9336 439.578 81.1289H436.73C436.73 80.582 436.527 80.1289 436.121 79.7695C435.715 79.4023 435.176 79.2188 434.504 79.2188C433.879 79.2188 433.367 79.3633 432.969 79.6523C432.578 79.9414 432.383 80.3281 432.383 80.8125C432.383 81.25 432.566 81.5898 432.934 81.832C433.301 82.0742 434.043 82.3203 435.16 82.5703C436.277 82.8125 437.152 83.1055 437.785 83.4492C438.426 83.7852 438.898 84.1914 439.203 84.668C439.516 85.1445 439.672 85.7227 439.672 86.4023C439.672 87.543 439.199 88.4688 438.254 89.1797C437.309 89.8828 436.07 90.2344 434.539 90.2344C433.5 90.2344 432.574 90.0469 431.762 89.6719C430.949 89.2969 430.316 88.7812 429.863 88.125C429.41 87.4688 429.184 86.7617 429.184 86.0039H431.949C431.988 86.6758 432.242 87.1953 432.711 87.5625C433.18 87.9219 433.801 88.1016 434.574 88.1016C435.324 88.1016 435.895 87.9609 436.285 87.6797C436.676 87.3906 436.871 87.0156 436.871 86.5547Z" fill="#0089D7"/>
<path d="M449.27 86.5547C449.27 86.0469 449.059 85.6602 448.637 85.3945C448.223 85.1289 447.531 84.8945 446.562 84.6914C445.594 84.4883 444.785 84.2305 444.137 83.918C442.715 83.2305 442.004 82.2344 442.004 80.9297C442.004 79.8359 442.465 78.9219 443.387 78.1875C444.309 77.4531 445.48 77.0859 446.902 77.0859C448.418 77.0859 449.641 77.4609 450.57 78.2109C451.508 78.9609 451.977 79.9336 451.977 81.1289H449.129C449.129 80.582 448.926 80.1289 448.52 79.7695C448.113 79.4023 447.574 79.2188 446.902 79.2188C446.277 79.2188 445.766 79.3633 445.367 79.6523C444.977 79.9414 444.781 80.3281 444.781 80.8125C444.781 81.25 444.965 81.5898 445.332 81.832C445.699 82.0742 446.441 82.3203 447.559 82.5703C448.676 82.8125 449.551 83.1055 450.184 83.4492C450.824 83.7852 451.297 84.1914 451.602 84.668C451.914 85.1445 452.07 85.7227 452.07 86.4023C452.07 87.543 451.598 88.4688 450.652 89.1797C449.707 89.8828 448.469 90.2344 446.938 90.2344C445.898 90.2344 444.973 90.0469 444.16 89.6719C443.348 89.2969 442.715 88.7812 442.262 88.125C441.809 87.4688 441.582 86.7617 441.582 86.0039H444.348C444.387 86.6758 444.641 87.1953 445.109 87.5625C445.578 87.9219 446.199 88.1016 446.973 88.1016C447.723 88.1016 448.293 87.9609 448.684 87.6797C449.074 87.3906 449.27 87.0156 449.27 86.5547Z" fill="#0089D7"/>
<defs>
<linearGradient id="paint0_linear" x1="49" y1="8" x2="49" y2="88" gradientUnits="userSpaceOnUse">
<stop stop-color="#C7EBFF"/>
<stop offset="1" stop-color="#4EBFFF"/>
</linearGradient>
</defs>
</svg>
